<svg width="32.547852" height="32.555176" viewBox="0 0 32.5479 32.5552" fill="none" xmlns="http://www.w3.org/2000/svg" xmlns:xlink="http://www.w3.org/1999/xlink">
	<desc>
			Created with Pixso.
	</desc>
	<defs>
		<filter id="filter_2_476_dd" x="0.000000" y="0.000000" width="32.547852" height="32.555176" filterUnits="userSpaceOnUse" color-interpolation-filters="sRGB">
			<feFlood flood-opacity="0" result="BackgroundImageFix"/>
			<feColorMatrix in="SourceAlpha" type="matrix" values="0 0 0 0 0 0 0 0 0 0 0 0 0 0 0 0 0 0 127 0" result="hardAlpha"/>
			<feOffset dx="0" dy="4"/>
			<feGaussianBlur stdDeviation="1.33333"/>
			<feComposite in2="hardAlpha" operator="out" k2="-1" k3="1"/>
			<feColorMatrix type="matrix" values="0 0 0 0 0 0 0 0 0 0 0 0 0 0 0 0 0 0 0.25 0"/>
			<feBlend mode="normal" in2="BackgroundImageFix" result="effect_dropShadow_1"/>
			<feBlend mode="normal" in="SourceGraphic" in2="effect_dropShadow_1" result="shape"/>
		</filter>
		<clipPath id="clip2_6906">
			<rect id="Icons-dribbble" width="14.319636" height="14.323922" transform="translate(9.114258 5.115723)" fill="white" fill-opacity="0"/>
		</clipPath>
	</defs>
	<g filter="url(#filter_2_476_dd)">
		<ellipse id="Ellipse 9" cx="16.273926" cy="12.277832" rx="12.273974" ry="12.277646" fill="#FFB400" fill-opacity="1.000000"/>
		<rect id="Icons-dribbble" width="14.319636" height="14.323922" transform="translate(9.114258 5.115723)" fill="#FFFFFF" fill-opacity="0"/>
		<rect id="Icons-dribbble" width="14.319636" height="14.323922" transform="translate(9.114258 5.115723)" fill="#FFFFFF" fill-opacity="0"/>
		<rect id="Icons-dribbble" width="14.319636" height="14.323922" transform="translate(9.114258 5.115723)" fill="#FFFFFF" fill-opacity="0"/>
		<g clip-path="url(#clip2_6906)">
			<path id="Vector" d="M21.04 12.02C20.99 11.08 20.66 10.17 20.1 9.42C19.93 9.61 19.74 9.78 19.55 9.94C18.95 10.43 18.29 10.84 17.57 11.14C17.67 11.35 17.76 11.55 17.84 11.74L17.84 11.74C17.87 11.8 17.89 11.85 17.91 11.9C18.81 11.8 19.76 11.84 20.69 11.96C20.81 11.98 20.93 12 21.04 12.02ZM15.44 7.57C16.02 8.39 16.55 9.24 17.04 10.12C17.77 9.83 18.38 9.47 18.86 9.06C19.03 8.93 19.19 8.78 19.34 8.61C18.48 7.89 17.39 7.5 16.27 7.5C15.99 7.5 15.71 7.52 15.44 7.57L15.44 7.57ZM11.65 11.08C12.05 11.07 12.46 11.04 12.86 11C13.84 10.92 14.81 10.75 15.77 10.51C15.27 9.65 14.73 8.81 14.15 7.99C13.54 8.3 13 8.73 12.56 9.26C12.13 9.79 11.82 10.41 11.65 11.08ZM12.56 15.28C12.79 14.94 13.1 14.56 13.5 14.14C14.37 13.26 15.39 12.56 16.58 12.18L16.61 12.17C16.51 11.95 16.42 11.76 16.33 11.58C15.23 11.9 14.08 12.1 12.93 12.2C12.37 12.25 11.87 12.27 11.5 12.27C11.5 13.37 11.87 14.43 12.56 15.28L12.56 15.28ZM18.06 16.7C17.83 15.54 17.51 14.4 17.09 13.29C15.89 13.73 14.94 14.36 14.21 15.12C13.91 15.42 13.65 15.75 13.42 16.1C14.24 16.72 15.24 17.05 16.27 17.05C16.88 17.05 17.49 16.93 18.06 16.7L18.06 16.7ZM19.18 16.06C20.11 15.34 20.75 14.31 20.96 13.15C20.76 13.1 20.5 13.05 20.22 13.01C19.59 12.92 18.95 12.91 18.32 12.99C18.68 13.99 18.96 15.02 19.18 16.06L19.18 16.06ZM16.27 18.24C12.97 18.24 10.3 15.57 10.3 12.27C10.3 8.98 12.97 6.3 16.27 6.3C19.56 6.3 22.24 8.98 22.24 12.27C22.24 15.57 19.56 18.24 16.27 18.24Z" fill="#2B2B2B" fill-opacity="1.000000" fill-rule="nonzero"/>
		</g>
	</g>
</svg>
