<svg width="24.547852" height="24.555176" viewBox="0 0 24.5479 24.5552" fill="none" xmlns="http://www.w3.org/2000/svg" xmlns:xlink="http://www.w3.org/1999/xlink">
	<desc>
			Created with Pixso.
	</desc>
	<defs>
		<clipPath id="clip2_6946">
			<rect id="Icons-instagram" width="14.319636" height="14.323922" transform="translate(5.114258 5.115723)" fill="white" fill-opacity="0"/>
		</clipPath>
	</defs>
	<ellipse id="Ellipse 9" cx="12.273926" cy="12.277832" rx="12.273974" ry="12.277646" fill="#FFB400" fill-opacity="1.000000"/>
	<rect id="Icons-instagram" width="14.319636" height="14.323922" transform="translate(5.114258 5.115723)" fill="#FFFFFF" fill-opacity="0"/>
	<rect id="Icons-instagram" width="14.319636" height="14.323922" transform="translate(5.114258 5.115723)" fill="#FFFFFF" fill-opacity="0"/>
	<rect id="Icons-instagram" width="14.319636" height="14.323922" transform="translate(5.114258 5.115723)" fill="#FFFFFF" fill-opacity="0"/>
	<g clip-path="url(#clip2_6946)">
		<path id="Vector" d="M12.27 6.3C13.89 6.3 14.09 6.31 14.73 6.34C15.36 6.37 15.8 6.47 16.18 6.62C16.57 6.77 16.9 6.97 17.23 7.31C17.54 7.6 17.77 7.97 17.92 8.36C18.07 8.74 18.17 9.18 18.2 9.81C18.23 10.45 18.24 10.65 18.24 12.27C18.24 13.89 18.23 14.1 18.2 14.73C18.17 15.37 18.07 15.8 17.92 16.18C17.77 16.58 17.54 16.94 17.23 17.24C16.94 17.54 16.58 17.78 16.18 17.93C15.8 18.08 15.36 18.18 14.73 18.21C14.09 18.23 13.89 18.24 12.27 18.24C10.65 18.24 10.45 18.24 9.81 18.21C9.17 18.18 8.74 18.08 8.36 17.93C7.96 17.78 7.6 17.54 7.3 17.24C7 16.94 6.77 16.58 6.62 16.18C6.47 15.8 6.37 15.37 6.34 14.73C6.31 14.1 6.3 13.89 6.3 12.27C6.3 10.65 6.31 10.45 6.34 9.81C6.37 9.18 6.47 8.74 6.62 8.36C6.77 7.97 7 7.6 7.3 7.31C7.6 7 7.96 6.77 8.36 6.62C8.74 6.47 9.17 6.37 9.81 6.34C10.45 6.31 10.65 6.3 12.27 6.3ZM12.27 9.29C11.48 9.29 10.72 9.6 10.16 10.16C9.6 10.72 9.29 11.48 9.29 12.27C9.29 13.06 9.6 13.82 10.16 14.38C10.72 14.94 11.48 15.26 12.27 15.26C13.06 15.26 13.82 14.94 14.38 14.38C14.94 13.82 15.25 13.06 15.25 12.27C15.25 11.48 14.94 10.72 14.38 10.16C13.82 9.6 13.06 9.29 12.27 9.29ZM16.15 9.14C16.15 8.94 16.07 8.75 15.93 8.61C15.79 8.47 15.6 8.39 15.4 8.39C15.2 8.39 15.01 8.47 14.87 8.61C14.73 8.75 14.66 8.94 14.66 9.14C14.66 9.34 14.73 9.53 14.87 9.67C15.01 9.81 15.2 9.89 15.4 9.89C15.6 9.89 15.79 9.81 15.93 9.67C16.07 9.53 16.15 9.34 16.15 9.14ZM12.27 10.48C12.74 10.48 13.2 10.67 13.54 11.01C13.87 11.34 14.06 11.8 14.06 12.27C14.06 12.75 13.87 13.2 13.54 13.54C13.2 13.87 12.74 14.06 12.27 14.06C11.79 14.06 11.34 13.87 11 13.54C10.67 13.2 10.48 12.75 10.48 12.27C10.48 11.8 10.67 11.34 11 11.01C11.34 10.67 11.79 10.48 12.27 10.48Z" fill="#2B2B2B" fill-opacity="1.000000" fill-rule="nonzero"/>
	</g>
</svg>
