<svg width="24.547852" height="24.555176" viewBox="0 0 24.5479 24.5552" fill="none" xmlns="http://www.w3.org/2000/svg" xmlns:xlink="http://www.w3.org/1999/xlink">
	<desc>
			Created with Pixso.
	</desc>
	<defs>
		<clipPath id="clip2_6926">
			<rect id="Icons-linkedin" width="14.319636" height="14.323922" transform="translate(5.114258 5.115723)" fill="white" fill-opacity="0"/>
		</clipPath>
	</defs>
	<ellipse id="Ellipse 18" cx="12.273926" cy="12.277832" rx="12.273974" ry="12.277646" fill="#FFB400" fill-opacity="1.000000"/>
	<rect id="Icons-linkedin" width="14.319636" height="14.323922" transform="translate(5.114258 5.115723)" fill="#FFFFFF" fill-opacity="0"/>
	<rect id="Icons-linkedin" width="14.319636" height="14.323922" transform="translate(5.114258 5.115723)" fill="#FFFFFF" fill-opacity="0"/>
	<rect id="Icons-linkedin" width="14.319636" height="14.323922" transform="translate(5.114258 5.115723)" fill="#FFFFFF" fill-opacity="0"/>
	<g clip-path="url(#clip2_6926)">
		<path id="Vector" d="M9.25 8.1C9.25 8.41 9.12 8.72 8.9 8.94C8.68 9.16 8.37 9.29 8.06 9.29C7.74 9.29 7.44 9.16 7.21 8.94C6.99 8.71 6.86 8.41 6.86 8.09C6.86 7.78 6.99 7.47 7.21 7.25C7.44 7.03 7.74 6.9 8.06 6.9C8.37 6.9 8.68 7.03 8.9 7.25C9.12 7.47 9.25 7.78 9.25 8.1ZM9.29 10.17L6.9 10.17L6.9 17.64L9.29 17.64L9.29 10.17ZM13.06 10.17L10.68 10.17L10.68 17.64L13.03 17.64L13.03 13.72C13.03 11.54 15.88 11.34 15.88 13.72L15.88 17.64L18.24 17.64L18.24 12.91C18.24 9.23 14.02 9.37 13.03 11.17L13.06 10.17Z" fill="#2B2B2B" fill-opacity="1.000000" fill-rule="nonzero"/>
	</g>
</svg>
