<svg width="24.547852" height="24.555176" viewBox="0 0 24.5479 24.5552" fill="none" xmlns="http://www.w3.org/2000/svg" xmlns:xlink="http://www.w3.org/1999/xlink">
	<desc>
			Created with Pixso.
	</desc>
	<defs>
		<clipPath id="clip2_6936">
			<rect id="Icons-twitter" width="14.319636" height="14.323922" transform="translate(5.114258 5.115723)" fill="white" fill-opacity="0"/>
		</clipPath>
	</defs>
	<ellipse id="Ellipse 9" cx="12.273926" cy="12.277832" rx="12.273974" ry="12.277646" fill="#FFB400" fill-opacity="1.000000"/>
	<rect id="Icons-twitter" width="14.319636" height="14.323922" transform="translate(5.114258 5.115723)" fill="#FFFFFF" fill-opacity="0"/>
	<rect id="Icons-twitter" width="14.319636" height="14.323922" transform="translate(5.114258 5.115723)" fill="#FFFFFF" fill-opacity="0"/>
	<rect id="Icons-twitter" width="14.319636" height="14.323922" transform="translate(5.114258 5.115723)" fill="#FFFFFF" fill-opacity="0"/>
	<g clip-path="url(#clip2_6936)">
		<path id="Vector" d="M18.33 8.49C17.88 8.69 17.39 8.82 16.9 8.88C17.42 8.57 17.81 8.08 18 7.5C17.51 7.79 16.97 7.99 16.41 8.1C16.04 7.7 15.54 7.44 15 7.35C14.45 7.26 13.9 7.35 13.41 7.61C12.93 7.87 12.54 8.28 12.32 8.78C12.09 9.28 12.03 9.85 12.16 10.38C11.17 10.33 10.2 10.07 9.31 9.62C8.43 9.17 7.64 8.54 7.02 7.77C6.8 8.15 6.68 8.59 6.68 9.03C6.68 9.89 7.12 10.66 7.79 11.1C7.39 11.09 7.01 10.99 6.66 10.79L6.66 10.82C6.66 11.4 6.86 11.96 7.22 12.4C7.59 12.85 8.1 13.16 8.66 13.27C8.29 13.37 7.91 13.39 7.53 13.31C7.69 13.81 8 14.24 8.42 14.56C8.84 14.87 9.34 15.04 9.86 15.05C9.35 15.46 8.75 15.76 8.12 15.93C7.49 16.11 6.82 16.16 6.17 16.08C7.31 16.82 8.64 17.2 10 17.2C14.59 17.2 17.1 13.4 17.1 10.1C17.1 9.99 17.09 9.89 17.09 9.78C17.58 9.43 18 8.99 18.33 8.49L18.33 8.49Z" fill="#2B2B2B" fill-opacity="1.000000" fill-rule="nonzero"/>
	</g>
</svg>
