<svg width="24.547852" height="24.555176" viewBox="0 0 24.5479 24.5552" fill="none" xmlns="http://www.w3.org/2000/svg" xmlns:xlink="http://www.w3.org/1999/xlink">
	<desc>
			Created with Pixso.
	</desc>
	<defs>
		<clipPath id="clip2_6916">
			<rect id="Icons-Youtube" width="14.319636" height="14.323922" transform="translate(5.113770 5.115723)" fill="white" fill-opacity="0"/>
		</clipPath>
	</defs>
	<ellipse id="Ellipse 9" cx="12.273926" cy="12.277832" rx="12.273974" ry="12.277646" fill="#FFB400" fill-opacity="1.000000"/>
	<rect id="Icons-Youtube" width="14.319636" height="14.323922" transform="translate(5.113770 5.115723)" fill="#FFFFFF" fill-opacity="0"/>
	<rect id="Icons-Youtube" width="14.319636" height="14.323922" transform="translate(5.113770 5.115723)" fill="#FFFFFF" fill-opacity="0"/>
	<rect id="Icons-Youtube" width="14.319636" height="14.323922" transform="translate(5.113770 5.115723)" fill="#FFFFFF" fill-opacity="0"/>
	<g clip-path="url(#clip2_6916)">
		<path id="Vector" d="M17.96 8.99C18.24 10.05 18.24 12.27 18.24 12.27C18.24 12.27 18.24 14.49 17.96 15.56C17.81 16.14 17.37 16.61 16.81 16.76C15.79 17.05 12.27 17.05 12.27 17.05C12.27 17.05 8.75 17.05 7.73 16.76C7.17 16.6 6.72 16.14 6.57 15.56C6.3 14.49 6.3 12.27 6.3 12.27C6.3 12.27 6.3 10.05 6.57 8.99C6.73 8.4 7.17 7.94 7.73 7.78C8.75 7.5 12.27 7.5 12.27 7.5C12.27 7.5 15.79 7.5 16.81 7.78C17.37 7.94 17.81 8.4 17.96 8.99ZM11.08 14.36L14.66 12.27L11.08 10.18L11.08 14.36Z" fill="#2B2B2B" fill-opacity="1.000000" fill-rule="nonzero"/>
	</g>
</svg>
